<svg xmlns="http://www.w3.org/2000/svg" xmlns:xlink="http://www.w3.org/1999/xlink" width="2000" zoomAndPan="magnify" viewBox="0 0 1500 1499.999933" height="2000" preserveAspectRatio="xMidYMid meet" version="1.0"><defs><g/><clipPath id="9275b5ca41"><path d="M 357 68.859375 L 671 68.859375 L 671 541 L 357 541 Z M 357 68.859375 " clip-rule="nonzero"/></clipPath><clipPath id="beabc0c163"><path d="M 1 68.859375 L 315 68.859375 L 315 541 L 1 541 Z M 1 68.859375 " clip-rule="nonzero"/></clipPath><clipPath id="2ff26f4a98"><rect x="0" width="574" y="0" height="589"/></clipPath><clipPath id="1a897a5c53"><path d="M 614 0.441406 L 1365.039062 0.441406 L 1365.039062 424 L 614 424 Z M 614 0.441406 " clip-rule="nonzero"/></clipPath><clipPath id="57818a20a7"><rect x="0" width="752" y="0" height="424"/></clipPath><clipPath id="d864955f88"><path d="M 349 777 L 1260 777 L 1260 996.441406 L 349 996.441406 Z M 349 777 " clip-rule="nonzero"/></clipPath><clipPath id="c0fa29b5c3"><rect x="0" width="911" y="0" height="220"/></clipPath><clipPath id="b7b061bfb2"><rect x="0" width="1366" y="0" height="997"/></clipPath></defs><rect x="-150" width="1800" fill="#ffffff" y="-149.999993" height="1799.99992" fill-opacity="1"/><rect x="-150" width="1800" fill="#ffffff" y="-149.999993" height="1799.99992" fill-opacity="1"/><g transform="matrix(1, 0, 0, 1, 74, 277)"><g clip-path="url(#b7b061bfb2)"><path fill="#ff751f" d="M 342.632812 661.332031 C 332.453125 670.371094 316.832031 676.863281 299.894531 679.058594 C 282.957031 681.253906 264.878906 679.234375 250.402344 673.441406 C 263.652344 680.8125 281.730469 684.675781 299.632812 683.886719 C 317.535156 683.09375 334.996094 677.742188 347.195312 669.230469 C 355.882812 674.933594 369.835938 677.214844 382.035156 674.757812 C 395.722656 672.039062 401.777344 665.367188 408.097656 658.171875 C 400.8125 664.84375 390.285156 668.703125 377.644531 669.492188 C 364.746094 670.371094 351.496094 667.210938 342.632812 661.332031 Z M 342.632812 661.332031 " fill-opacity="1" fill-rule="nonzero"/><path fill="#ff751f" d="M 293.402344 567.433594 C 304.28125 571.382812 316.917969 573.3125 323.851562 582.441406 C 329.554688 589.988281 329.382812 601.132812 324.464844 609.207031 C 319.550781 617.277344 310.425781 622.367188 301.035156 623.597656 C 287.785156 625.351562 273.832031 619.5625 265.671875 609.03125 C 257.507812 598.5 255.316406 583.582031 260.316406 571.121094 C 248.820312 594.460938 257.597656 620.261719 271.8125 634.390625 C 285.941406 648.433594 307.96875 649.574219 327.890625 649.835938 C 345.617188 650.097656 363.867188 650.273438 380.804688 645.535156 L 387.210938 643.605469 C 390.109375 642.726562 392.828125 641.585938 395.371094 640.09375 C 395.460938 640.09375 395.460938 640.007812 395.460938 640.007812 C 412.132812 625.878906 431.351562 611.3125 424.246094 586.039062 C 423.105469 597.183594 416.609375 608.152344 406.253906 612.453125 C 395.898438 616.753906 382.121094 612.363281 377.996094 602.007812 C 373.433594 590.601562 381.246094 577.875 390.722656 570.152344 C 400.199219 562.433594 411.871094 557.078125 419.503906 547.511719 C 371.765625 556.726562 321.832031 554.972656 274.886719 542.335938 C 271.285156 553.394531 282.605469 563.484375 293.402344 567.433594 Z M 293.402344 567.433594 " fill-opacity="1" fill-rule="nonzero"/><g clip-path="url(#9275b5ca41)"><path fill="#ff751f" d="M 438.8125 174.816406 C 459.433594 196.140625 467.507812 228.699219 459.347656 257.21875 C 450.132812 289.160156 423.453125 312.503906 406.519531 341.113281 C 387.300781 373.582031 381.15625 413.511719 389.667969 450.28125 C 398.179688 487.050781 421.347656 520.222656 452.851562 540.933594 C 413.1875 458.179688 419.242188 405.175781 446.09375 346.203125 C 441.269531 380.425781 457.503906 416.757812 486.199219 435.976562 C 458.46875 397.453125 460.925781 340.058594 491.992188 304.078125 C 554.296875 321.28125 625.378906 301.886719 670.3125 255.289062 C 624.855469 221.941406 560.792969 215.972656 509.980469 240.542969 C 541.75 221.851562 574.480469 202.285156 595.894531 172.269531 C 617.304688 142.257812 624.589844 98.820312 603.003906 68.984375 C 608.441406 96.976562 599.667969 127.339844 580.097656 148.050781 C 560.527344 168.761719 530.691406 179.203125 502.433594 175.253906 C 477.074219 171.746094 454.519531 157.617188 430.652344 148.488281 C 406.695312 139.363281 377.382812 135.851562 357.289062 151.648438 C 385.894531 144.277344 418.191406 153.492188 438.8125 174.816406 Z M 438.8125 174.816406 " fill-opacity="1" fill-rule="nonzero"/></g><g clip-path="url(#beabc0c163)"><path fill="#ff751f" d="M 179.320312 304.078125 C 210.296875 339.972656 212.839844 397.453125 185.109375 435.976562 C 213.808594 416.757812 230.042969 380.425781 225.214844 346.203125 C 252.070312 405.175781 258.125 458.179688 218.457031 540.933594 C 249.960938 520.222656 273.128906 487.050781 281.640625 450.28125 C 290.152344 413.511719 284.011719 373.582031 264.792969 341.113281 C 247.855469 312.503906 221.179688 289.074219 211.964844 257.21875 C 203.714844 228.785156 211.875 196.140625 232.5 174.816406 C 253.121094 153.492188 285.414062 144.363281 314.113281 151.5625 C 293.929688 135.765625 264.617188 139.273438 240.746094 148.402344 C 216.789062 157.527344 194.324219 171.65625 168.964844 175.167969 C 140.707031 179.117188 110.871094 168.671875 91.300781 147.964844 C 71.554688 127.339844 62.78125 96.976562 68.222656 68.984375 C 46.632812 98.820312 53.917969 142.257812 75.328125 172.269531 C 96.828125 202.195312 129.472656 221.765625 161.242188 240.542969 C 110.519531 215.972656 46.457031 221.851562 1 255.289062 C 45.84375 301.796875 116.925781 321.28125 179.320312 304.078125 Z M 179.320312 304.078125 " fill-opacity="1" fill-rule="nonzero"/></g><path fill="#ff751f" d="M 1120.058594 731.800781 C 1043.359375 690.816406 942.175781 662.5625 855.300781 665.019531 C 780.796875 667.125 711.46875 669.582031 638.894531 686.429688 C 506.734375 716.96875 378.4375 789.367188 243.46875 777.167969 C 181.160156 771.554688 119.46875 757.25 87 703.804688 C 63.394531 664.929688 61.464844 615.261719 75.679688 572.085938 C 89.894531 528.910156 130.175781 491 164.402344 461.164062 C 103.9375 499.949219 38.296875 545.847656 23.113281 616.050781 C 8.546875 683.007812 48.300781 753.738281 106.480469 789.980469 C 164.664062 826.136719 237.238281 832.542969 305.160156 823.855469 C 373.171875 815.167969 438.460938 792.789062 504.628906 774.976562 C 632.839844 740.398438 764.296875 710.476562 898.5625 723.023438 C 975.171875 730.21875 1042.21875 734.519531 1111.632812 766.550781 C 1185.699219 800.6875 1250.8125 862.203125 1256.515625 938.902344 C 1257.570312 851.847656 1196.757812 772.78125 1120.058594 731.800781 Z M 1120.058594 731.800781 " fill-opacity="1" fill-rule="nonzero"/><g transform="matrix(1, 0, 0, 1, 619, 196)"><g clip-path="url(#2ff26f4a98)"><g fill="#ff751f" fill-opacity="1"><g transform="translate(46.498257, 415.141213)"><g><path d="M 150.8125 -279.09375 C 178.757812 -279.257812 200.515625 -270.175781 216.078125 -251.84375 C 231.640625 -233.519531 239.515625 -208.40625 239.703125 -176.5 C 239.847656 -152.019531 236.890625 -129.1875 230.828125 -108 C 224.773438 -86.820312 215.984375 -68.160156 204.453125 -52.015625 C 192.929688 -35.878906 178.972656 -23.3125 162.578125 -14.3125 C 146.179688 -5.3125 127.597656 -0.75 106.828125 -0.625 C 89.765625 -0.53125 74.59375 -4.210938 61.3125 -11.671875 C 48.039062 -19.140625 37.523438 -30.515625 29.765625 -45.796875 C 22.015625 -61.085938 18.070312 -80.234375 17.9375 -103.234375 C 17.789062 -128.453125 20.804688 -151.710938 26.984375 -173.015625 C 33.160156 -194.316406 42.078125 -212.851562 53.734375 -228.625 C 65.390625 -244.40625 79.410156 -256.726562 95.796875 -265.59375 C 112.191406 -274.46875 130.53125 -278.96875 150.8125 -279.09375 Z M 72.625 -139.546875 C 71.4375 -130.628906 70.5 -121.59375 69.8125 -112.4375 C 69.125 -103.28125 68.800781 -95.363281 68.84375 -88.6875 C 68.9375 -71.625 70.925781 -58.160156 74.8125 -48.296875 C 78.707031 -38.429688 83.820312 -31.414062 90.15625 -27.25 C 96.488281 -23.082031 103.488281 -21.019531 111.15625 -21.0625 C 127.226562 -21.15625 142.007812 -31.007812 155.5 -50.625 C 168.988281 -70.25 178.703125 -100.109375 184.640625 -140.203125 C 186.066406 -149.109375 187.0625 -158.140625 187.625 -167.296875 C 188.195312 -176.453125 188.460938 -184.367188 188.421875 -191.046875 C 188.316406 -208.109375 186.378906 -221.570312 182.609375 -231.4375 C 178.847656 -241.3125 173.800781 -248.328125 167.46875 -252.484375 C 161.132812 -256.640625 154.015625 -258.695312 146.109375 -258.65625 C 136.460938 -258.59375 126.773438 -254.515625 117.046875 -246.421875 C 107.328125 -238.335938 98.5625 -225.617188 90.75 -208.265625 C 82.945312 -190.910156 76.90625 -168.003906 72.625 -139.546875 Z M 72.625 -139.546875 "/></g></g></g><g fill="#ff751f" fill-opacity="1"><g transform="translate(278.897024, 412.919952)"><g><path d="M 176.875 -228.734375 C 162.0625 -231.554688 149.140625 -229.800781 138.109375 -223.46875 C 127.078125 -217.144531 120.289062 -207.300781 117.75 -193.9375 C 116.3125 -186.40625 117.117188 -178.757812 120.171875 -171 C 123.234375 -163.25 128.429688 -156.15625 135.765625 -149.71875 L 176.90625 -113.9375 C 190.75 -102 199.859375 -90.007812 204.234375 -77.96875 C 208.609375 -65.925781 209.570312 -53.46875 207.125 -40.59375 C 204.570312 -27.226562 198.28125 -15.394531 188.25 -5.09375 C 178.226562 5.195312 164.9375 12.539062 148.375 16.9375 C 131.8125 21.332031 112.476562 21.425781 90.375 17.21875 C 73.84375 14.070312 59.8125 8.753906 48.28125 1.265625 C 36.75 -6.210938 28.363281 -15.046875 23.125 -25.234375 C 17.894531 -35.421875 16.34375 -46.097656 18.46875 -57.265625 C 20.96875 -70.390625 25.953125 -79.382812 33.421875 -84.25 C 40.890625 -89.125 49 -90.726562 57.75 -89.0625 C 63.582031 -87.957031 67.984375 -86.300781 70.953125 -84.09375 C 73.929688 -81.882812 75.878906 -79.875 76.796875 -78.0625 C 77.710938 -76.257812 78.171875 -75.359375 78.171875 -75.359375 C 78.171875 -75.359375 76.90625 -74.335938 74.375 -72.296875 C 71.84375 -70.265625 69.054688 -67.210938 66.015625 -63.140625 C 62.984375 -59.066406 60.863281 -53.867188 59.65625 -47.546875 C 57.570312 -36.609375 59.644531 -27.019531 65.875 -18.78125 C 72.113281 -10.550781 82.273438 -5.097656 96.359375 -2.421875 C 112.878906 0.722656 126.695312 -1.109375 137.8125 -7.921875 C 148.9375 -14.734375 155.632812 -24.097656 157.90625 -36.015625 C 159.65625 -45.242188 158.648438 -53.863281 154.890625 -61.875 C 151.140625 -69.894531 143.835938 -78.460938 132.984375 -87.578125 L 98.234375 -117.21875 C 84.585938 -128.882812 75.613281 -140.597656 71.3125 -152.359375 C 67.019531 -164.128906 66.125 -176.578125 68.625 -189.703125 C 71.207031 -203.304688 77.382812 -215.28125 87.15625 -225.625 C 96.9375 -235.976562 109.75 -243.421875 125.59375 -247.953125 C 141.4375 -252.484375 159.925781 -252.734375 181.0625 -248.703125 C 198.3125 -245.421875 212.921875 -239.867188 224.890625 -232.046875 C 236.867188 -224.234375 245.5625 -215.03125 250.96875 -204.4375 C 256.375 -193.84375 257.921875 -182.472656 255.609375 -170.328125 C 253.203125 -157.703125 248.160156 -148.398438 240.484375 -142.421875 C 232.804688 -136.453125 223.378906 -134.535156 212.203125 -136.671875 C 203.453125 -138.335938 197.554688 -141.09375 194.515625 -144.9375 C 191.472656 -148.789062 189.953125 -150.71875 189.953125 -150.71875 C 189.953125 -150.71875 191.695312 -151.644531 195.1875 -153.5 C 198.6875 -155.351562 202.476562 -158.722656 206.5625 -163.609375 C 210.644531 -168.492188 213.519531 -175.3125 215.1875 -184.0625 C 217.125 -194.257812 215.109375 -203.507812 209.140625 -211.8125 C 203.179688 -220.125 192.425781 -225.765625 176.875 -228.734375 Z M 176.875 -228.734375 "/></g></g></g></g></g><g clip-path="url(#1a897a5c53)"><g transform="matrix(1, 0, 0, 1, 614, 0.000000000000113687)"><g clip-path="url(#57818a20a7)"><g fill="#ff751f" fill-opacity="1"><g transform="translate(87.25719, 295.472675)"><g><path d="M 52.109375 -127.171875 L 57.796875 -44.796875 C 58.117188 -38.734375 57.519531 -33.460938 56 -28.984375 C 57.78125 -28.847656 59.785156 -28.875 62.015625 -29.0625 C 64.242188 -29.25 66.597656 -29.644531 69.078125 -30.25 C 80.234375 -33.019531 89.117188 -38.328125 95.734375 -46.171875 C 102.347656 -54.023438 106.492188 -63.710938 108.171875 -75.234375 C 109.847656 -86.765625 108.976562 -99.421875 105.5625 -113.203125 C 102.394531 -126.015625 97.195312 -136.390625 89.96875 -144.328125 C 82.75 -152.265625 73.835938 -157.554688 63.234375 -160.203125 C 52.640625 -162.847656 40.796875 -162.550781 27.703125 -159.3125 C 17.503906 -156.789062 9.679688 -153.390625 4.234375 -149.109375 C -1.210938 -144.835938 -4.8125 -140.328125 -6.5625 -135.578125 C -8.3125 -130.828125 -8.691406 -126.457031 -7.703125 -122.46875 C -6.984375 -119.570312 -5.6875 -117.441406 -3.8125 -116.078125 C -1.9375 -114.710938 0.304688 -114.351562 2.921875 -115 C 4.023438 -115.269531 4.859375 -115.585938 5.421875 -115.953125 C 5.984375 -116.316406 6.265625 -116.5 6.265625 -116.5 C 6.265625 -116.5 6.332031 -116.367188 6.46875 -116.109375 C 6.613281 -115.847656 6.769531 -115.375 6.9375 -114.6875 C 7.550781 -112.207031 6.875 -109.332031 4.90625 -106.0625 C 2.9375 -102.800781 -0.664062 -100.519531 -5.90625 -99.21875 C -12.644531 -97.550781 -18.414062 -98.132812 -23.21875 -100.96875 C -28.03125 -103.800781 -31.203125 -108.316406 -32.734375 -114.515625 C -34.429688 -121.398438 -33.570312 -128.445312 -30.15625 -135.65625 C -26.75 -142.863281 -20.578125 -149.546875 -11.640625 -155.703125 C -2.710938 -161.867188 9.117188 -166.773438 23.859375 -170.421875 C 42.878906 -175.128906 60.078125 -175.945312 75.453125 -172.875 C 90.835938 -169.8125 103.691406 -163.523438 114.015625 -154.015625 C 124.347656 -144.503906 131.367188 -132.242188 135.078125 -117.234375 C 139.140625 -100.828125 139.394531 -85.894531 135.84375 -72.4375 C 132.300781 -58.988281 125.617188 -47.722656 115.796875 -38.640625 C 105.984375 -29.554688 93.707031 -23.191406 78.96875 -19.546875 C 72.769531 -18.003906 67.179688 -17.238281 62.203125 -17.25 C 57.222656 -17.269531 52.910156 -17.554688 49.265625 -18.109375 C 46.742188 -15.296875 43.757812 -13.023438 40.3125 -11.296875 C 36.863281 -9.566406 33.207031 -8.222656 29.34375 -7.265625 C 23.289062 -5.765625 18.671875 -5.972656 15.484375 -7.890625 C 12.304688 -9.804688 10.34375 -12.28125 9.59375 -15.3125 C 8.769531 -18.625 9.289062 -21.828125 11.15625 -24.921875 C 13.019531 -28.023438 16.707031 -30.253906 22.21875 -31.609375 C 24.570312 -32.191406 27.351562 -32.507812 30.5625 -32.5625 L 24.359375 -121.40625 C 23.816406 -128.875 22.914062 -133.988281 21.65625 -136.75 C 20.394531 -139.507812 19.765625 -140.890625 19.765625 -140.890625 C 19.765625 -140.890625 20.570312 -141.457031 22.1875 -142.59375 C 23.8125 -143.726562 26.757812 -144.828125 31.03125 -145.890625 C 38.75 -147.796875 44.039062 -147.238281 46.90625 -144.21875 C 49.78125 -141.195312 51.515625 -135.515625 52.109375 -127.171875 Z M 52.109375 -127.171875 "/></g></g></g><g fill="#ff751f" fill-opacity="1"><g transform="translate(234.721381, 260.120285)"><g><path d="M 47.703125 -108.75 C 60.171875 -109.320312 69.976562 -106.035156 77.125 -98.890625 C 84.28125 -91.753906 88.140625 -82.09375 88.703125 -69.90625 C 88.796875 -67.632812 88.785156 -65.359375 88.671875 -63.078125 C 88.566406 -60.796875 88.425781 -58.585938 88.25 -56.453125 C 93.582031 -57.546875 98.101562 -59.523438 101.8125 -62.390625 C 105.519531 -65.265625 108.347656 -67.953125 110.296875 -70.453125 C 112.242188 -72.953125 113.21875 -74.203125 113.21875 -74.203125 C 116.195312 -74.335938 117.554688 -72.628906 117.296875 -69.078125 C 116.972656 -66.640625 115.425781 -63.832031 112.65625 -60.65625 C 109.894531 -57.476562 106.265625 -54.578125 101.765625 -51.953125 C 97.265625 -49.335938 92.191406 -47.546875 86.546875 -46.578125 C 83.578125 -33.785156 77.484375 -23.238281 68.265625 -14.9375 C 59.054688 -6.632812 47.222656 -2.148438 32.765625 -1.484375 C 21.554688 -0.972656 12.066406 -4.023438 4.296875 -10.640625 C -3.460938 -17.253906 -7.640625 -27.148438 -8.234375 -40.328125 C -8.828125 -53.234375 -6.972656 -64.722656 -2.671875 -74.796875 C 1.628906 -84.867188 8.085938 -92.90625 16.703125 -98.90625 C 25.316406 -104.914062 35.648438 -108.195312 47.703125 -108.75 Z M 50.421875 -67.53125 C 50.253906 -71.207031 51.03125 -74.398438 52.75 -77.109375 C 54.476562 -79.828125 57.101562 -81.617188 60.625 -82.484375 C 59 -93.347656 54.144531 -98.597656 46.0625 -98.234375 C 40.8125 -97.992188 35.769531 -94.632812 30.9375 -88.15625 C 26.113281 -81.6875 22.570312 -70.441406 20.3125 -54.421875 C 19.882812 -51.710938 19.597656 -48.046875 19.453125 -43.421875 C 19.316406 -38.796875 19.304688 -35.132812 19.421875 -32.4375 C 19.722656 -25.769531 21.195312 -20.679688 23.84375 -17.171875 C 26.488281 -13.660156 30.007812 -12.007812 34.40625 -12.21875 C 40.21875 -12.476562 45.285156 -15.796875 49.609375 -22.171875 C 53.941406 -28.554688 57.160156 -38.195312 59.265625 -51.09375 C 53.691406 -54.957031 50.742188 -60.4375 50.421875 -67.53125 Z M 50.421875 -67.53125 "/></g></g></g><g fill="#ff751f" fill-opacity="1"><g transform="translate(334.425369, 254.528651)"><g><path d="M 64.25 -99.875 C 76.65625 -98.46875 85.828125 -93.675781 91.765625 -85.5 C 97.703125 -77.332031 99.984375 -67.179688 98.609375 -55.046875 C 98.347656 -52.796875 97.984375 -50.550781 97.515625 -48.3125 C 97.046875 -46.082031 96.550781 -43.925781 96.03125 -41.84375 C 101.476562 -42.082031 106.257812 -43.328125 110.375 -45.578125 C 114.488281 -47.828125 117.707031 -50.03125 120.03125 -52.1875 C 122.351562 -54.351562 123.515625 -55.4375 123.515625 -55.4375 C 126.472656 -55.101562 127.535156 -53.203125 126.703125 -49.734375 C 126.003906 -47.378906 124.035156 -44.847656 120.796875 -42.140625 C 117.566406 -39.429688 113.519531 -37.140625 108.65625 -35.265625 C 103.800781 -33.390625 98.519531 -32.421875 92.8125 -32.359375 C 87.863281 -20.191406 80.1875 -10.734375 69.78125 -3.984375 C 59.375 2.765625 46.976562 5.320312 32.59375 3.6875 C 21.4375 2.425781 12.546875 -2.078125 5.921875 -9.828125 C -0.691406 -17.578125 -3.253906 -28.007812 -1.765625 -41.125 C -0.316406 -53.96875 3.320312 -65.019531 9.15625 -74.28125 C 14.988281 -83.539062 22.628906 -90.460938 32.078125 -95.046875 C 41.535156 -99.628906 52.257812 -101.238281 64.25 -99.875 Z M 60.4375 -58.71875 C 60.851562 -62.382812 62.125 -65.421875 64.25 -67.828125 C 66.382812 -70.234375 69.253906 -71.59375 72.859375 -71.90625 C 72.960938 -82.882812 68.988281 -88.832031 60.9375 -89.75 C 55.726562 -90.332031 50.234375 -87.8125 44.453125 -82.1875 C 38.671875 -76.5625 33.40625 -66.015625 28.65625 -50.546875 C 27.789062 -47.929688 26.921875 -44.351562 26.046875 -39.8125 C 25.171875 -35.269531 24.582031 -31.65625 24.28125 -28.96875 C 23.53125 -22.332031 24.1875 -17.078125 26.25 -13.203125 C 28.3125 -9.328125 31.53125 -7.144531 35.90625 -6.65625 C 41.6875 -6 47.21875 -8.476562 52.5 -14.09375 C 57.78125 -19.707031 62.472656 -28.710938 66.578125 -41.109375 C 61.691406 -45.804688 59.644531 -51.675781 60.4375 -58.71875 Z M 60.4375 -58.71875 "/></g></g></g><g fill="#ff751f" fill-opacity="1"><g transform="translate(433.531647, 264.409751)"><g><path d="M 79.515625 22.4375 C 72.816406 20.550781 67.816406 16.960938 64.515625 11.671875 C 61.210938 6.390625 60.414062 -0.0664062 62.125 -7.703125 C 48.84375 5.367188 36.125 10.191406 23.96875 6.765625 C 15.632812 4.410156 9.335938 -0.460938 5.078125 -7.859375 C 0.828125 -15.253906 0.398438 -24.960938 3.796875 -36.984375 C 7.035156 -48.460938 11.34375 -57.976562 16.71875 -65.53125 C 22.101562 -73.082031 28.035156 -78.929688 34.515625 -83.078125 C 40.992188 -87.222656 47.585938 -89.820312 54.296875 -90.875 C 61.015625 -91.925781 67.378906 -91.609375 73.390625 -89.921875 C 78.171875 -88.566406 82.101562 -86.566406 85.1875 -83.921875 C 88.28125 -81.285156 90.601562 -78.269531 92.15625 -74.875 L 118.140625 -129.28125 C 121.046875 -135.382812 122.628906 -139.835938 122.890625 -142.640625 C 123.160156 -145.441406 123.296875 -146.84375 123.296875 -146.84375 C 123.296875 -146.84375 124.203125 -146.921875 126.015625 -147.078125 C 127.828125 -147.234375 130.648438 -146.769531 134.484375 -145.6875 C 142.398438 -143.445312 146.769531 -140.515625 147.59375 -136.890625 C 148.414062 -133.265625 147.191406 -128.003906 143.921875 -121.109375 L 92.09375 -12.71875 C 89.40625 -6.84375 88.429688 -2.21875 89.171875 1.15625 C 89.910156 4.539062 92.125 6.753906 95.8125 7.796875 C 99.375 8.796875 103.65625 8.269531 108.65625 6.21875 C 113.65625 4.164062 118.222656 0.773438 122.359375 -3.953125 C 123.722656 -3.566406 124.664062 -2.859375 125.1875 -1.828125 C 125.707031 -0.804688 125.5625 0.625 124.75 2.46875 C 123.4375 5.050781 121.304688 7.769531 118.359375 10.625 C 115.410156 13.476562 111.84375 16.046875 107.65625 18.328125 C 103.476562 20.617188 98.972656 22.222656 94.140625 23.140625 C 89.304688 24.066406 84.429688 23.832031 79.515625 22.4375 Z M 37.21875 -8.75 C 40.90625 -7.707031 44.785156 -8.414062 48.859375 -10.875 C 52.941406 -13.332031 56.957031 -16.84375 60.90625 -21.40625 C 64.863281 -25.976562 68.597656 -30.972656 72.109375 -36.390625 C 75.628906 -41.804688 78.582031 -46.914062 80.96875 -51.71875 L 85.53125 -60.8125 C 85.15625 -63.132812 84.257812 -65.710938 82.84375 -68.546875 C 81.4375 -71.378906 78.75 -73.351562 74.78125 -74.46875 C 70.132812 -75.78125 64.90625 -74.894531 59.09375 -71.8125 C 53.28125 -68.726562 47.742188 -63.613281 42.484375 -56.46875 C 37.234375 -49.332031 33.046875 -40.234375 29.921875 -29.171875 C 28.304688 -23.421875 28.160156 -18.847656 29.484375 -15.453125 C 30.804688 -12.054688 33.382812 -9.820312 37.21875 -8.75 Z M 37.21875 -8.75 "/></g></g></g><g fill="#ff751f" fill-opacity="1"><g transform="translate(534.856126, 291.69487)"><g><path d="M 95.28125 24.71875 C 103.238281 28.488281 112.617188 26.109375 123.421875 17.578125 C 124.703125 18.179688 125.507812 19.03125 125.84375 20.125 C 126.1875 21.226562 125.804688 22.625 124.703125 24.3125 C 122.960938 26.632812 120.398438 28.957031 117.015625 31.28125 C 113.640625 33.601562 109.726562 35.554688 105.28125 37.140625 C 100.84375 38.722656 96.195312 39.578125 91.34375 39.703125 C 86.488281 39.835938 81.816406 38.835938 77.328125 36.703125 C 70.140625 33.296875 65.507812 28.390625 63.4375 21.984375 C 61.375 15.585938 62.050781 8.796875 65.46875 1.609375 C 66.675781 -0.953125 68.4375 -3.921875 70.75 -7.296875 C 73.0625 -10.679688 75.734375 -14.5625 78.765625 -18.9375 L 92.453125 -38.359375 C 95.421875 -42.617188 96.894531 -45.8125 96.875 -47.9375 C 96.863281 -50.0625 95.773438 -51.640625 93.609375 -52.671875 C 90.523438 -54.140625 86.410156 -54.09375 81.265625 -52.53125 C 76.128906 -50.96875 70.472656 -48.148438 64.296875 -44.078125 C 58.128906 -40.015625 51.894531 -35 45.59375 -29.03125 C 39.300781 -23.0625 33.535156 -16.375 28.296875 -8.96875 C 24.398438 -3.425781 22.082031 0.695312 21.34375 3.40625 C 20.613281 6.125 20.25 7.484375 20.25 7.484375 C 20.25 7.484375 19.34375 7.40625 17.53125 7.25 C 15.71875 7.101562 13.015625 6.175781 9.421875 4.46875 C 1.984375 0.9375 -1.816406 -2.710938 -1.984375 -6.484375 C -2.148438 -10.265625 -0.0820312 -15.210938 4.21875 -21.328125 L 83.65625 -133.53125 C 87.539062 -139.070312 89.851562 -143.195312 90.59375 -145.90625 C 91.332031 -148.625 91.703125 -149.984375 91.703125 -149.984375 C 91.703125 -149.984375 92.609375 -149.90625 94.421875 -149.75 C 96.234375 -149.59375 98.929688 -148.664062 102.515625 -146.96875 C 109.960938 -143.4375 113.785156 -139.816406 113.984375 -136.109375 C 114.179688 -132.398438 112.097656 -127.414062 107.734375 -121.15625 L 60.6875 -54.875 C 65.269531 -57.882812 70.503906 -60.625 76.390625 -63.09375 C 82.273438 -65.5625 88.304688 -67.097656 94.484375 -67.703125 C 100.660156 -68.304688 106.375 -67.363281 111.625 -64.875 C 117.65625 -62.007812 121.613281 -57.925781 123.5 -52.625 C 125.394531 -47.332031 124.910156 -41.671875 122.046875 -35.640625 C 121.066406 -33.585938 119.773438 -31.289062 118.171875 -28.75 C 116.578125 -26.21875 114.820312 -23.59375 112.90625 -20.875 L 95.421875 4.03125 C 91.960938 9 90.175781 13.265625 90.0625 16.828125 C 89.957031 20.390625 91.695312 23.019531 95.28125 24.71875 Z M 95.28125 24.71875 "/></g></g></g></g></g></g><g clip-path="url(#d864955f88)"><g transform="matrix(1, 0, 0, 1, 349, 777)"><g clip-path="url(#c0fa29b5c3)"><g fill="#ff751f" fill-opacity="1"><g transform="translate(23.151222, 142.200643)"><g><path d="M 39.828125 -62.890625 C 43.984375 -63.859375 46.546875 -62.269531 47.515625 -58.125 C 48.265625 -54.9375 49 -51.738281 49.71875 -48.53125 C 50.4375 -45.332031 51.171875 -42.144531 51.921875 -38.96875 C 52.671875 -35.738281 53.429688 -32.523438 54.203125 -29.328125 C 54.984375 -26.128906 55.742188 -22.941406 56.484375 -19.765625 C 57.453125 -15.609375 55.859375 -13.046875 51.703125 -12.078125 L 50.375 -11.765625 C 46.226562 -10.796875 43.671875 -12.390625 42.703125 -16.546875 C 42.003906 -19.734375 41.289062 -22.929688 40.5625 -26.140625 C 39.84375 -29.347656 39.109375 -32.566406 38.359375 -35.796875 L 36.015625 -45.453125 L 35.71875 -45.390625 L 33.03125 -19.234375 C 32.632812 -15.585938 31.238281 -13.488281 28.84375 -12.9375 C 26.394531 -12.363281 24.238281 -13.660156 22.375 -16.828125 L 9.03125 -39.15625 L 8.671875 -39.0625 C 9.753906 -34.625 10.710938 -30.722656 11.546875 -27.359375 C 12.390625 -23.992188 13.164062 -20.953125 13.875 -18.234375 C 14.59375 -15.523438 15.296875 -12.910156 15.984375 -10.390625 C 16.566406 -8.347656 16.46875 -6.671875 15.6875 -5.359375 C 14.90625 -4.046875 13.539062 -3.160156 11.59375 -2.703125 C 9.632812 -2.242188 8.003906 -2.425781 6.703125 -3.25 C 5.410156 -4.082031 4.546875 -5.507812 4.109375 -7.53125 C 1.171875 -20.351562 -1.816406 -33.140625 -4.859375 -45.890625 C -5.347656 -47.878906 -5.179688 -49.535156 -4.359375 -50.859375 C -3.546875 -52.191406 -2.140625 -53.085938 -0.140625 -53.546875 L 6.609375 -55.125 C 10.128906 -55.945312 12.882812 -54.863281 14.875 -51.875 L 25.078125 -36.71875 L 26.515625 -54.375 C 26.785156 -58.039062 28.726562 -60.296875 32.34375 -61.140625 Z M 39.828125 -62.890625 "/></g></g></g><g fill="#ff751f" fill-opacity="1"><g transform="translate(85.456667, 127.969212)"><g><path d="M 1.21875 -48.109375 C -1.488281 -47.566406 -3.546875 -47.664062 -4.953125 -48.40625 C -6.359375 -49.144531 -7.285156 -50.625 -7.734375 -52.84375 C -8.171875 -55.050781 -7.882812 -56.769531 -6.875 -58 C -5.863281 -59.226562 -4.003906 -60.113281 -1.296875 -60.65625 C 1.453125 -61.207031 3.519531 -61.109375 4.90625 -60.359375 C 6.289062 -59.617188 7.203125 -58.144531 7.640625 -55.9375 C 8.085938 -53.71875 7.816406 -51.992188 6.828125 -50.765625 C 5.835938 -49.546875 3.96875 -48.660156 1.21875 -48.109375 Z M 10.703125 -2.15625 C 6.515625 -1.3125 4 -2.984375 3.15625 -7.171875 L 1.890625 -13.4375 C 0.742188 -18.882812 -0.175781 -23.34375 -0.875 -26.8125 C -1.570312 -30.289062 -2.175781 -33.179688 -2.6875 -35.484375 C -3.519531 -39.617188 -1.847656 -42.109375 2.328125 -42.953125 L 2.40625 -42.96875 C 6.59375 -43.8125 9.109375 -42.144531 9.953125 -37.96875 C 10.460938 -35.40625 11 -32.71875 11.5625 -29.90625 C 12.132812 -27.101562 12.617188 -24.566406 13.015625 -22.296875 C 13.390625 -20.171875 13.800781 -18.0625 14.25 -15.96875 C 14.695312 -13.882812 15.132812 -11.785156 15.5625 -9.671875 C 16.507812 -5.503906 14.890625 -3 10.703125 -2.15625 Z M 10.703125 -2.15625 "/></g></g></g><g fill="#ff751f" fill-opacity="1"><g transform="translate(105.573711, 123.919293)"><g><path d="M 10.140625 -1.890625 C 5.953125 -1.109375 3.46875 -2.816406 2.6875 -7.015625 C 2.0625 -10.628906 1.453125 -14.175781 0.859375 -17.65625 C 0.265625 -21.144531 -0.375 -24.71875 -1.0625 -28.375 C -1.664062 -31.625 -2.300781 -34.898438 -2.96875 -38.203125 C -3.632812 -41.503906 -4.289062 -44.78125 -4.9375 -48.03125 C -5.71875 -52.226562 -4.015625 -54.71875 0.171875 -55.5 L 0.609375 -55.578125 C 4.804688 -56.359375 7.296875 -54.648438 8.078125 -50.453125 C 8.679688 -47.191406 9.289062 -43.90625 9.90625 -40.59375 C 10.519531 -37.289062 11.109375 -34.007812 11.671875 -30.75 C 12.304688 -27.082031 12.957031 -23.507812 13.625 -20.03125 C 14.300781 -16.5625 14.992188 -13.03125 15.703125 -9.4375 C 16.484375 -5.238281 14.773438 -2.75 10.578125 -1.96875 Z M 10.140625 -1.890625 "/></g></g></g><g fill="#ff751f" fill-opacity="1"><g transform="translate(125.310269, 120.086818)"><g><path d="M 39.171875 -13.5 C 40.210938 -11.488281 40.335938 -9.769531 39.546875 -8.34375 C 38.753906 -6.914062 37.21875 -6.015625 34.9375 -5.640625 L 32.859375 -5.3125 C 29.140625 -4.707031 26.453125 -6.253906 24.796875 -9.953125 C 23.535156 -12.753906 22.425781 -14.890625 21.46875 -16.359375 C 20.507812 -17.835938 19.546875 -18.8125 18.578125 -19.28125 C 17.617188 -19.757812 16.515625 -19.898438 15.265625 -19.703125 L 14.15625 -19.53125 C 14.4375 -17.800781 14.71875 -16.066406 15 -14.328125 C 15.28125 -12.597656 15.59375 -10.84375 15.9375 -9.0625 C 16.613281 -4.84375 14.84375 -2.394531 10.625 -1.71875 L 10.1875 -1.640625 C 5.976562 -0.960938 3.535156 -2.734375 2.859375 -6.953125 C 2.304688 -10.578125 1.773438 -14.140625 1.265625 -17.640625 C 0.753906 -21.140625 0.203125 -24.722656 -0.390625 -28.390625 C -0.921875 -31.660156 -1.476562 -34.953125 -2.0625 -38.265625 C -2.65625 -41.585938 -3.234375 -44.878906 -3.796875 -48.140625 C -4.484375 -52.347656 -2.722656 -54.789062 1.484375 -55.46875 L 1.921875 -55.546875 C 6.140625 -56.222656 8.59375 -54.457031 9.28125 -50.25 C 9.800781 -46.976562 10.328125 -43.679688 10.859375 -40.359375 C 11.398438 -37.035156 11.910156 -33.738281 12.390625 -30.46875 L 12.859375 -27.5625 C 14.492188 -28.832031 15.820312 -30.539062 16.84375 -32.6875 C 17.863281 -34.84375 18.554688 -37.117188 18.921875 -39.515625 C 19.234375 -41.453125 19.84375 -42.976562 20.75 -44.09375 C 21.664062 -45.207031 23.070312 -45.914062 24.96875 -46.21875 L 26.453125 -46.453125 C 28.773438 -46.828125 30.59375 -46.410156 31.90625 -45.203125 C 33.226562 -43.992188 33.488281 -42.234375 32.6875 -39.921875 C 31.707031 -37.160156 30.441406 -34.675781 28.890625 -32.46875 C 27.335938 -30.257812 25.660156 -28.601562 23.859375 -27.5 L 23.90625 -27.203125 C 26.113281 -27.304688 28.015625 -27.003906 29.609375 -26.296875 C 31.210938 -25.597656 32.742188 -24.242188 34.203125 -22.234375 C 35.671875 -20.234375 37.328125 -17.320312 39.171875 -13.5 Z M 39.171875 -13.5 "/></g></g></g><g fill="#ff751f" fill-opacity="1"><g transform="translate(168.832287, 113.190143)"><g/></g></g><g fill="#ff751f" fill-opacity="1"><g transform="translate(186.406581, 110.572354)"><g><path d="M 25.28125 -2.140625 C 17.851562 -1.285156 12.148438 -2.894531 8.171875 -6.96875 C 4.191406 -11.039062 1.695312 -17.515625 0.6875 -26.390625 C -1.351562 -44.140625 4.984375 -53.859375 19.703125 -55.546875 C 25.242188 -56.179688 29.828125 -55.34375 33.453125 -53.03125 C 37.085938 -50.71875 39.421875 -47.046875 40.453125 -42.015625 C 40.890625 -39.941406 40.554688 -38.296875 39.453125 -37.078125 C 38.359375 -35.867188 36.785156 -35.144531 34.734375 -34.90625 L 34.28125 -34.859375 C 32.226562 -34.617188 30.679688 -35.003906 29.640625 -36.015625 C 28.597656 -37.035156 27.800781 -38.601562 27.25 -40.71875 C 26.726562 -42.632812 25.929688 -43.945312 24.859375 -44.65625 C 23.785156 -45.363281 22.300781 -45.609375 20.40625 -45.390625 C 17.820312 -45.097656 16.109375 -43.648438 15.265625 -41.046875 C 14.429688 -38.453125 14.363281 -34.113281 15.0625 -28.03125 C 15.5625 -23.632812 16.257812 -20.285156 17.15625 -17.984375 C 18.050781 -15.691406 19.097656 -14.160156 20.296875 -13.390625 C 21.492188 -12.617188 22.789062 -12.3125 24.1875 -12.46875 C 25.78125 -12.65625 27.019531 -13.078125 27.90625 -13.734375 C 28.800781 -14.390625 29.394531 -15.414062 29.6875 -16.8125 C 30.113281 -18.882812 30.738281 -20.488281 31.5625 -21.625 C 32.382812 -22.757812 33.769531 -23.4375 35.71875 -23.65625 L 35.796875 -23.671875 C 37.835938 -23.898438 39.535156 -23.507812 40.890625 -22.5 C 42.242188 -21.488281 42.851562 -19.867188 42.71875 -17.640625 C 42.488281 -13.003906 40.859375 -9.414062 37.828125 -6.875 C 34.804688 -4.332031 30.625 -2.753906 25.28125 -2.140625 Z M 25.28125 -2.140625 "/></g></g></g><g fill="#ff751f" fill-opacity="1"><g transform="translate(232.663111, 105.287917)"><g><path d="M 22.125 -1.046875 C 15.414062 -0.503906 10.359375 -1.941406 6.953125 -5.359375 C 3.554688 -8.785156 1.554688 -14.203125 0.953125 -21.609375 C -0.179688 -35.472656 5.703125 -42.929688 18.609375 -43.984375 C 23.265625 -44.367188 27.085938 -43.695312 30.078125 -41.96875 C 33.066406 -40.25 35.265625 -37.671875 36.671875 -34.234375 C 38.085938 -30.804688 38.738281 -26.742188 38.625 -22.046875 C 38.582031 -21.234375 38.238281 -20.800781 37.59375 -20.75 L 13.65625 -18.796875 C 13.957031 -16.253906 14.476562 -14.304688 15.21875 -12.953125 C 15.957031 -11.609375 16.863281 -10.710938 17.9375 -10.265625 C 19.007812 -9.828125 20.191406 -9.660156 21.484375 -9.765625 C 23.441406 -9.921875 24.96875 -10.375 26.0625 -11.125 C 26.957031 -11.851562 27.644531 -12.535156 28.125 -13.171875 C 28.613281 -13.816406 29.132812 -14.363281 29.6875 -14.8125 C 30.25 -15.257812 31.054688 -15.53125 32.109375 -15.625 C 34.054688 -15.78125 35.648438 -15.414062 36.890625 -14.53125 C 38.128906 -13.65625 38.539062 -12.34375 38.125 -10.59375 C 36.8125 -5 31.476562 -1.816406 22.125 -1.046875 Z M 13.15625 -25.859375 L 25.453125 -26.875 C 25.316406 -29.882812 24.710938 -32.097656 23.640625 -33.515625 C 22.566406 -34.941406 20.925781 -35.5625 18.71875 -35.375 C 16.769531 -35.21875 15.28125 -34.351562 14.25 -32.78125 C 13.21875 -31.21875 12.851562 -28.910156 13.15625 -25.859375 Z M 13.15625 -25.859375 "/></g></g></g><g fill="#ff751f" fill-opacity="1"><g transform="translate(274.797022, 101.804314)"><g><path d="M 41.5 -8.546875 C 41.71875 -4.234375 39.691406 -1.972656 35.421875 -1.765625 L 35.203125 -1.75 C 30.941406 -1.539062 28.703125 -3.59375 28.484375 -7.90625 C 28.367188 -11.363281 28.242188 -14.660156 28.109375 -17.796875 C 27.984375 -20.929688 27.859375 -23.800781 27.734375 -26.40625 C 27.609375 -28.863281 27.09375 -30.550781 26.1875 -31.46875 C 25.289062 -32.382812 23.988281 -32.773438 22.28125 -32.640625 C 19.375 -32.390625 17.367188 -30.828125 16.265625 -27.953125 C 16.316406 -26.953125 16.351562 -25.910156 16.375 -24.828125 C 16.40625 -23.753906 16.445312 -22.6875 16.5 -21.625 C 16.570312 -19.164062 16.675781 -16.757812 16.8125 -14.40625 C 16.957031 -12.050781 17.117188 -9.671875 17.296875 -7.265625 C 17.503906 -3.003906 15.472656 -0.769531 11.203125 -0.5625 L 10.75 -0.53125 C 6.5 -0.320312 4.269531 -2.347656 4.0625 -6.609375 C 3.976562 -9.015625 3.890625 -11.394531 3.796875 -13.75 C 3.710938 -16.113281 3.609375 -18.519531 3.484375 -20.96875 C 3.359375 -23.476562 3.222656 -25.921875 3.078125 -28.296875 C 2.929688 -30.679688 2.78125 -33.082031 2.625 -35.5 C 2.414062 -39.757812 4.410156 -41.992188 8.609375 -42.203125 C 10.617188 -42.304688 12.175781 -42.082031 13.28125 -41.53125 C 14.394531 -40.988281 14.957031 -40.140625 14.96875 -38.984375 C 14.988281 -38.484375 15.015625 -37.941406 15.046875 -37.359375 C 15.078125 -36.785156 15.109375 -36.117188 15.140625 -35.359375 L 15.359375 -35.359375 C 16.679688 -38.097656 18.398438 -40.148438 20.515625 -41.515625 C 22.640625 -42.878906 25.160156 -43.632812 28.078125 -43.78125 C 32.035156 -43.976562 35.054688 -42.765625 37.140625 -40.140625 C 39.234375 -37.523438 40.359375 -33.113281 40.515625 -26.90625 C 40.597656 -24.28125 40.726562 -21.414062 40.90625 -18.3125 C 41.082031 -15.207031 41.28125 -11.953125 41.5 -8.546875 Z M 41.5 -8.546875 "/></g></g></g><g fill="#ff751f" fill-opacity="1"><g transform="translate(319.819422, 99.647924)"><g><path d="M 23.671875 -9.625 C 25.878906 -9.78125 27.585938 -9.707031 28.796875 -9.40625 C 30.003906 -9.101562 30.707031 -8.175781 30.90625 -6.625 C 31.082031 -5.019531 30.84375 -3.632812 30.1875 -2.46875 C 29.539062 -1.300781 28.394531 -0.519531 26.75 -0.125 C 25.25 0.207031 23.59375 0.394531 21.78125 0.4375 C 18.664062 0.5 15.957031 0.0820312 13.65625 -0.8125 C 11.351562 -1.71875 9.5625 -3.238281 8.28125 -5.375 C 7 -7.507812 6.347656 -10.410156 6.328125 -14.078125 C 6.328125 -16.285156 6.300781 -18.59375 6.25 -21 C 6.195312 -23.414062 6.144531 -25.828125 6.09375 -28.234375 L 6 -32.140625 L 5.921875 -32.140625 C 1.648438 -32.046875 -0.515625 -33.601562 -0.578125 -36.8125 C -0.648438 -40.019531 0.394531 -41.648438 2.5625 -41.703125 L 5.71875 -41.765625 C 5.707031 -42.421875 5.679688 -43.050781 5.640625 -43.65625 C 5.597656 -44.257812 5.570312 -44.882812 5.5625 -45.53125 C 5.476562 -49.25 7.1875 -51.695312 10.6875 -52.875 C 12.769531 -53.632812 14.460938 -53.625 15.765625 -52.84375 C 17.066406 -52.0625 17.738281 -50.671875 17.78125 -48.671875 L 17.921875 -42.03125 L 23.1875 -42.15625 C 27.457031 -42.238281 29.628906 -40.703125 29.703125 -37.546875 C 29.765625 -34.378906 27.863281 -32.753906 24 -32.671875 L 18.125 -32.46875 C 18.144531 -31.832031 18.144531 -31.1875 18.125 -30.53125 C 18.113281 -29.875 18.117188 -29.195312 18.140625 -28.5 C 18.128906 -26.34375 18.144531 -24.179688 18.1875 -22.015625 C 18.238281 -19.859375 18.289062 -17.800781 18.34375 -15.84375 C 18.425781 -11.570312 20.203125 -9.5 23.671875 -9.625 Z M 23.671875 -9.625 "/></g></g></g><g fill="#ff751f" fill-opacity="1"><g transform="translate(351.056277, 98.876255)"><g><path d="M 22.140625 0.859375 C 15.410156 0.828125 10.5 -1.035156 7.40625 -4.734375 C 4.3125 -8.441406 2.785156 -14.015625 2.828125 -21.453125 C 2.898438 -35.359375 9.410156 -42.28125 22.359375 -42.21875 C 27.023438 -42.1875 30.769531 -41.179688 33.59375 -39.203125 C 36.425781 -37.234375 38.398438 -34.472656 39.515625 -30.921875 C 40.628906 -27.378906 40.921875 -23.28125 40.390625 -18.625 C 40.285156 -17.820312 39.90625 -17.421875 39.25 -17.421875 L 15.234375 -17.546875 C 15.316406 -14.984375 15.664062 -12.992188 16.28125 -11.578125 C 16.90625 -10.171875 17.734375 -9.203125 18.765625 -8.671875 C 19.796875 -8.140625 20.960938 -7.875 22.265625 -7.875 C 24.222656 -7.863281 25.78125 -8.179688 26.9375 -8.828125 C 27.882812 -9.472656 28.625 -10.09375 29.15625 -10.6875 C 29.695312 -11.289062 30.265625 -11.789062 30.859375 -12.1875 C 31.460938 -12.582031 32.289062 -12.78125 33.34375 -12.78125 C 35.300781 -12.769531 36.851562 -12.269531 38 -11.28125 C 39.15625 -10.300781 39.453125 -8.957031 38.890625 -7.25 C 37.109375 -1.789062 31.523438 0.910156 22.140625 0.859375 Z M 15.34375 -24.625 L 27.6875 -24.5625 C 27.8125 -27.570312 27.398438 -29.832031 26.453125 -31.34375 C 25.503906 -32.851562 23.925781 -33.613281 21.71875 -33.625 C 19.757812 -33.632812 18.195312 -32.898438 17.03125 -31.421875 C 15.875 -29.953125 15.3125 -27.6875 15.34375 -24.625 Z M 15.34375 -24.625 "/></g></g></g><g fill="#ff751f" fill-opacity="1"><g transform="translate(393.439141, 99.152671)"><g><path d="M 29.65625 -41.3125 C 30.363281 -41.144531 31.082031 -40.75 31.8125 -40.125 C 32.539062 -39.5 33.140625 -38.445312 33.609375 -36.96875 C 33.828125 -36.101562 33.921875 -35.21875 33.890625 -34.3125 C 33.859375 -33.414062 33.707031 -32.546875 33.4375 -31.703125 C 32.863281 -29.765625 32.066406 -28.492188 31.046875 -27.890625 C 30.023438 -27.296875 29.039062 -27.191406 28.09375 -27.578125 C 27.144531 -27.910156 26.144531 -28.09375 25.09375 -28.125 C 21.832031 -28.226562 19.429688 -26.222656 17.890625 -22.109375 L 17.828125 -20.296875 C 17.804688 -19.492188 17.765625 -18.664062 17.703125 -17.8125 C 17.648438 -16.957031 17.613281 -16.128906 17.59375 -15.328125 C 17.539062 -13.785156 17.503906 -12.25 17.484375 -10.71875 C 17.460938 -9.1875 17.453125 -7.609375 17.453125 -5.984375 C 17.453125 -1.617188 15.300781 0.492188 11 0.359375 L 10.765625 0.34375 C 6.503906 0.207031 4.441406 -1.992188 4.578125 -6.265625 C 4.703125 -8.671875 4.8125 -11.0625 4.90625 -13.4375 C 5.007812 -15.820312 5.101562 -18.242188 5.1875 -20.703125 C 5.269531 -23.210938 5.335938 -25.644531 5.390625 -28 C 5.441406 -30.363281 5.484375 -32.753906 5.515625 -35.171875 C 5.648438 -39.429688 7.75 -41.492188 11.8125 -41.359375 C 15.863281 -41.234375 17.835938 -39.566406 17.734375 -36.359375 L 17.578125 -31.46875 L 17.8125 -31.296875 C 18.507812 -34.390625 19.734375 -36.890625 21.484375 -38.796875 C 23.234375 -40.703125 25.335938 -41.613281 27.796875 -41.53125 C 28.191406 -41.519531 28.550781 -41.492188 28.875 -41.453125 C 29.195312 -41.421875 29.457031 -41.375 29.65625 -41.3125 Z M 29.65625 -41.3125 "/></g></g></g><g fill="#ff751f" fill-opacity="1"><g transform="translate(425.313665, 100.23602)"><g/></g></g><g fill="#ff751f" fill-opacity="1"><g transform="translate(443.104107, 100.996999)"><g><path d="M 20.40625 -8.5625 C 22.613281 -8.457031 24.816406 -8.320312 27.015625 -8.15625 C 29.222656 -8 31.382812 -7.867188 33.5 -7.765625 C 37.738281 -7.460938 39.738281 -5.632812 39.5 -2.28125 C 39.25 1.125 37.003906 2.675781 32.765625 2.375 L 12.015625 0.875 C 9.972656 0.71875 8.4375 0.0507812 7.40625 -1.125 C 6.382812 -2.300781 5.972656 -3.921875 6.171875 -5.984375 C 6.410156 -9.285156 6.660156 -12.570312 6.921875 -15.84375 C 7.179688 -19.113281 7.429688 -22.382812 7.671875 -25.65625 C 7.898438 -28.90625 8.117188 -32.171875 8.328125 -35.453125 C 8.546875 -38.734375 8.769531 -42.003906 9 -45.265625 C 9.113281 -47.316406 9.757812 -48.851562 10.9375 -49.875 C 12.125 -50.894531 13.738281 -51.328125 15.78125 -51.171875 L 35.765625 -49.734375 C 40.023438 -49.421875 42.035156 -47.585938 41.796875 -44.234375 C 41.546875 -40.835938 39.289062 -39.296875 35.03125 -39.609375 C 33.03125 -39.796875 30.988281 -39.960938 28.90625 -40.109375 C 26.820312 -40.265625 24.765625 -40.441406 22.734375 -40.640625 L 21.90625 -29.15625 C 23.5 -29.09375 25.070312 -29.003906 26.625 -28.890625 C 28.1875 -28.773438 29.71875 -28.6875 31.21875 -28.625 C 35.46875 -28.3125 37.472656 -26.476562 37.234375 -23.125 C 36.984375 -19.726562 34.734375 -18.1875 30.484375 -18.5 C 28.992188 -18.65625 27.46875 -18.789062 25.90625 -18.90625 C 24.351562 -19.019531 22.78125 -19.15625 21.1875 -19.3125 Z M 20.40625 -8.5625 "/></g></g></g><g fill="#ff751f" fill-opacity="1"><g transform="translate(484.270265, 103.877836)"><g><path d="M 11.984375 1.265625 C 7.742188 0.816406 5.847656 -1.53125 6.296875 -5.78125 C 6.679688 -9.007812 7.0625 -12.253906 7.4375 -15.515625 C 7.8125 -18.785156 8.171875 -22.078125 8.515625 -25.390625 C 8.859375 -28.628906 9.191406 -31.878906 9.515625 -35.140625 C 9.835938 -38.410156 10.148438 -41.679688 10.453125 -44.953125 C 10.898438 -49.179688 13.242188 -51.070312 17.484375 -50.625 L 30.359375 -49.25 C 37.953125 -48.445312 43.335938 -46.640625 46.515625 -43.828125 C 49.703125 -41.023438 51.003906 -36.878906 50.421875 -31.390625 C 50.066406 -28.046875 48.851562 -25.269531 46.78125 -23.0625 C 44.707031 -20.851562 42.03125 -19.523438 38.75 -19.078125 L 38.71875 -18.78125 C 41.144531 -17.75 43.023438 -15.925781 44.359375 -13.3125 C 45.691406 -10.707031 46.632812 -7.023438 47.1875 -2.265625 C 47.457031 0.0234375 46.984375 1.75 45.765625 2.90625 C 44.554688 4.070312 42.851562 4.539062 40.65625 4.3125 L 38.265625 4.0625 C 34.367188 3.644531 32.335938 1.382812 32.171875 -2.71875 C 32.078125 -5.164062 31.804688 -7.367188 31.359375 -9.328125 C 30.910156 -11.285156 30.144531 -12.890625 29.0625 -14.140625 C 27.988281 -15.390625 26.425781 -16.125 24.375 -16.34375 L 21.609375 -16.640625 C 21.390625 -14.585938 21.171875 -12.523438 20.953125 -10.453125 C 20.734375 -8.390625 20.539062 -6.332031 20.375 -4.28125 C 19.925781 -0.03125 17.578125 1.863281 13.328125 1.40625 Z M 22.484375 -24.875 L 25.03125 -24.609375 C 28.570312 -24.234375 31.179688 -24.585938 32.859375 -25.671875 C 34.535156 -26.753906 35.523438 -28.71875 35.828125 -31.5625 C 36.078125 -33.90625 35.554688 -35.660156 34.265625 -36.828125 C 32.984375 -38.003906 30.796875 -38.757812 27.703125 -39.09375 L 24.109375 -39.46875 C 23.859375 -37.632812 23.617188 -35.628906 23.390625 -33.453125 C 23.160156 -31.273438 22.859375 -28.414062 22.484375 -24.875 Z M 22.484375 -24.875 "/></g></g></g><g fill="#ff751f" fill-opacity="1"><g transform="translate(534.009133, 109.137104)"><g><path d="M 11.921875 1.703125 C 7.703125 1.097656 5.894531 -1.316406 6.5 -5.546875 C 7 -8.765625 7.492188 -12 7.984375 -15.25 C 8.472656 -18.5 8.953125 -21.769531 9.421875 -25.0625 C 9.878906 -28.289062 10.328125 -31.53125 10.765625 -34.78125 C 11.203125 -38.039062 11.632812 -41.296875 12.0625 -44.546875 C 12.65625 -48.765625 15.0625 -50.570312 19.28125 -49.96875 L 32.109375 -48.140625 C 39.671875 -47.066406 44.984375 -45.003906 48.046875 -41.953125 C 51.109375 -38.898438 52.234375 -34.519531 51.421875 -28.8125 C 50.835938 -24.726562 49.351562 -21.335938 46.96875 -18.640625 C 44.582031 -15.941406 41.484375 -14.039062 37.671875 -12.9375 C 33.867188 -11.832031 29.484375 -11.632812 24.515625 -12.34375 L 21.75 -12.734375 C 21.519531 -11.179688 21.296875 -9.644531 21.078125 -8.125 C 20.867188 -6.613281 20.679688 -5.085938 20.515625 -3.546875 C 19.910156 0.679688 17.492188 2.492188 13.265625 1.890625 Z M 23.25 -23.3125 L 25.796875 -22.953125 C 29.316406 -22.441406 31.945312 -22.757812 33.6875 -23.90625 C 35.425781 -25.050781 36.515625 -27.164062 36.953125 -30.25 C 37.285156 -32.582031 36.828125 -34.359375 35.578125 -35.578125 C 34.335938 -36.796875 32.175781 -37.625 29.09375 -38.0625 L 25.515625 -38.578125 C 25.171875 -36.597656 24.835938 -34.476562 24.515625 -32.21875 C 24.203125 -29.96875 23.78125 -27 23.25 -23.3125 Z M 23.25 -23.3125 "/></g></g></g><g fill="#ff751f" fill-opacity="1"><g transform="translate(582.267395, 116.198362)"><g/></g></g><g fill="#ff751f" fill-opacity="1"><g transform="translate(599.834428, 118.971667)"><g><path d="M 21.53125 4.875 C 11.664062 2.988281 6.4375 -1.476562 5.84375 -8.53125 C 5.6875 -10.664062 6.296875 -12.191406 7.671875 -13.109375 C 9.054688 -14.023438 10.6875 -14.300781 12.5625 -13.9375 L 13.21875 -13.8125 C 14.40625 -13.582031 15.285156 -13.179688 15.859375 -12.609375 C 16.441406 -12.035156 16.945312 -11.335938 17.375 -10.515625 C 17.8125 -9.691406 18.359375 -8.734375 19.015625 -7.640625 C 19.867188 -6.453125 21.5 -5.628906 23.90625 -5.171875 C 27.8125 -4.421875 30.050781 -5.550781 30.625 -8.5625 C 30.957031 -10.289062 30.644531 -11.742188 29.6875 -12.921875 C 28.738281 -14.109375 27.421875 -15.191406 25.734375 -16.171875 C 24.054688 -17.148438 22.285156 -18.160156 20.421875 -19.203125 C 18.554688 -20.253906 16.820312 -21.484375 15.21875 -22.890625 C 13.625 -24.296875 12.4375 -26.03125 11.65625 -28.09375 C 10.875 -30.164062 10.769531 -32.707031 11.34375 -35.71875 C 12.40625 -41.289062 14.789062 -44.945312 18.5 -46.6875 C 22.21875 -48.425781 27.054688 -48.726562 33.015625 -47.59375 C 38.785156 -46.488281 42.910156 -44.484375 45.390625 -41.578125 C 47.878906 -38.679688 48.875 -35.007812 48.375 -30.5625 C 48.144531 -28.5 47.347656 -27.0625 45.984375 -26.25 C 44.628906 -25.445312 43.015625 -25.222656 41.140625 -25.578125 C 39.273438 -25.941406 38.046875 -26.738281 37.453125 -27.96875 C 36.867188 -29.207031 36.554688 -30.898438 36.515625 -33.046875 C 36.472656 -34.691406 35.988281 -35.90625 35.0625 -36.6875 C 34.144531 -37.476562 32.800781 -38.046875 31.03125 -38.390625 C 28.90625 -38.785156 27.316406 -38.519531 26.265625 -37.59375 C 25.222656 -36.675781 24.53125 -35.328125 24.1875 -33.546875 C 23.863281 -31.828125 24.050781 -30.378906 24.75 -29.203125 C 25.445312 -28.023438 26.476562 -26.992188 27.84375 -26.109375 C 29.207031 -25.234375 30.71875 -24.394531 32.375 -23.59375 C 34.039062 -22.800781 35.691406 -21.941406 37.328125 -21.015625 C 38.960938 -20.085938 40.429688 -19 41.734375 -17.75 C 43.035156 -16.507812 43.972656 -15 44.546875 -13.21875 C 45.128906 -11.445312 45.179688 -9.304688 44.703125 -6.796875 C 43.734375 -1.722656 41.289062 1.804688 37.375 3.796875 C 33.46875 5.785156 28.1875 6.144531 21.53125 4.875 Z M 21.53125 4.875 "/></g></g></g><g fill="#ff751f" fill-opacity="1"><g transform="translate(643.350945, 127.265775)"><g><path d="M 44.4375 -9.765625 C 44.082031 -8.203125 43.742188 -6.660156 43.421875 -5.140625 C 43.097656 -3.617188 42.765625 -2.078125 42.421875 -0.515625 C 41.003906 6.234375 38.835938 11.453125 35.921875 15.140625 C 33.015625 18.828125 29.507812 21.1875 25.40625 22.21875 C 21.3125 23.257812 16.789062 23.226562 11.84375 22.125 C 11.007812 21.9375 10.1875 21.710938 9.375 21.453125 C 8.5625 21.191406 7.773438 20.925781 7.015625 20.65625 C 5.273438 19.894531 4.144531 18.835938 3.625 17.484375 C 3.101562 16.128906 3.109375 14.640625 3.640625 13.015625 C 4.097656 11.421875 4.992188 10.398438 6.328125 9.953125 C 7.660156 9.515625 9.367188 9.570312 11.453125 10.125 C 15.179688 11.1875 18.316406 11.5625 20.859375 11.25 C 23.398438 10.945312 25.476562 9.769531 27.09375 7.71875 C 28.707031 5.664062 29.984375 2.554688 30.921875 -1.609375 L 30.671875 -1.84375 C 28.992188 0.769531 26.894531 2.644531 24.375 3.78125 C 21.863281 4.914062 19.207031 5.171875 16.40625 4.546875 C 12.5 3.660156 9.707031 1.847656 8.03125 -0.890625 C 6.363281 -3.628906 6.203125 -7.785156 7.546875 -13.359375 C 8.421875 -16.753906 9.203125 -20.097656 9.890625 -23.390625 C 10.578125 -26.691406 11.28125 -30.039062 12 -33.4375 C 12.9375 -37.59375 15.484375 -39.203125 19.640625 -38.265625 L 20.078125 -38.15625 C 24.242188 -37.21875 25.859375 -34.671875 24.921875 -30.515625 C 24.210938 -27.546875 23.519531 -24.617188 22.84375 -21.734375 C 22.164062 -18.847656 21.484375 -15.882812 20.796875 -12.84375 C 20.328125 -10.738281 20.4375 -9.054688 21.125 -7.796875 C 21.8125 -6.535156 22.875 -5.765625 24.3125 -5.484375 C 26.039062 -5.148438 27.550781 -5.566406 28.84375 -6.734375 C 30.144531 -7.910156 31.101562 -9.875 31.71875 -12.625 C 32.40625 -15.25 33.023438 -17.847656 33.578125 -20.421875 C 34.140625 -22.992188 34.6875 -25.585938 35.21875 -28.203125 C 35.613281 -30.210938 36.472656 -31.632812 37.796875 -32.46875 C 39.117188 -33.3125 40.785156 -33.507812 42.796875 -33.0625 L 43.21875 -32.953125 C 47.382812 -32.015625 48.992188 -29.441406 48.046875 -25.234375 C 47.429688 -22.703125 46.820312 -20.148438 46.21875 -17.578125 C 45.625 -15.015625 45.03125 -12.410156 44.4375 -9.765625 Z M 44.4375 -9.765625 "/></g></g></g><g fill="#ff751f" fill-opacity="1"><g transform="translate(686.74709, 137.037345)"><g><path d="M 19.171875 5.875 C 14.460938 4.65625 10.992188 3.0625 8.765625 1.09375 C 6.546875 -0.875 5.359375 -3.226562 5.203125 -5.96875 C 5.078125 -8.125 5.691406 -9.617188 7.046875 -10.453125 C 8.410156 -11.296875 9.945312 -11.5 11.65625 -11.0625 L 11.859375 -11.015625 C 13.035156 -10.710938 13.859375 -10.289062 14.328125 -9.75 C 14.804688 -9.21875 15.1875 -8.539062 15.46875 -7.71875 C 15.757812 -6.894531 16.128906 -5.929688 16.578125 -4.828125 C 17.023438 -3.773438 18.414062 -2.953125 20.75 -2.359375 C 23.03125 -1.765625 24.726562 -1.710938 25.84375 -2.203125 C 26.957031 -2.691406 27.65625 -3.472656 27.9375 -4.546875 C 28.28125 -5.910156 28.140625 -7.035156 27.515625 -7.921875 C 26.890625 -8.804688 25.976562 -9.582031 24.78125 -10.25 C 23.582031 -10.925781 22.234375 -11.585938 20.734375 -12.234375 C 19.234375 -12.878906 17.742188 -13.597656 16.265625 -14.390625 C 14.785156 -15.191406 13.503906 -16.160156 12.421875 -17.296875 C 11.335938 -18.429688 10.585938 -19.851562 10.171875 -21.5625 C 9.753906 -23.269531 9.859375 -25.335938 10.484375 -27.765625 C 12.617188 -36.035156 19.40625 -38.703125 30.84375 -35.765625 C 39.539062 -33.515625 44.035156 -29.632812 44.328125 -24.125 C 44.398438 -22.019531 43.757812 -20.554688 42.40625 -19.734375 C 41.0625 -18.921875 39.539062 -18.734375 37.84375 -19.171875 L 37.546875 -19.25 C 36.429688 -19.539062 35.613281 -19.945312 35.09375 -20.46875 C 34.570312 -20.988281 34.164062 -21.632812 33.875 -22.40625 C 33.59375 -23.1875 33.191406 -24.082031 32.671875 -25.09375 C 32.097656 -26.082031 30.769531 -26.847656 28.6875 -27.390625 C 26.738281 -27.890625 25.316406 -27.914062 24.421875 -27.46875 C 23.523438 -27.019531 22.929688 -26.234375 22.640625 -25.109375 C 22.273438 -23.660156 22.539062 -22.457031 23.4375 -21.5 C 24.332031 -20.539062 25.566406 -19.710938 27.140625 -19.015625 C 28.722656 -18.328125 30.421875 -17.59375 32.234375 -16.8125 C 34.054688 -16.039062 35.707031 -15.097656 37.1875 -13.984375 C 38.675781 -12.878906 39.757812 -11.445312 40.4375 -9.6875 C 41.125 -7.925781 41.125 -5.710938 40.4375 -3.046875 C 39.28125 1.429688 36.90625 4.410156 33.3125 5.890625 C 29.726562 7.378906 25.015625 7.375 19.171875 5.875 Z M 19.171875 5.875 "/></g></g></g><g fill="#ff751f" fill-opacity="1"><g transform="translate(725.61413, 147.095245)"><g><path d="M 25.453125 -2.203125 C 27.609375 -1.691406 29.21875 -1.113281 30.28125 -0.46875 C 31.351562 0.164062 31.753906 1.257812 31.484375 2.8125 C 31.171875 4.382812 30.53125 5.632812 29.5625 6.5625 C 28.59375 7.488281 27.265625 7.894531 25.578125 7.78125 C 24.054688 7.65625 22.421875 7.347656 20.671875 6.859375 C 17.679688 5.992188 15.21875 4.789062 13.28125 3.25 C 11.351562 1.707031 10.09375 -0.269531 9.5 -2.6875 C 8.90625 -5.101562 9.140625 -8.070312 10.203125 -11.59375 C 10.847656 -13.695312 11.5 -15.90625 12.15625 -18.21875 C 12.820312 -20.539062 13.488281 -22.859375 14.15625 -25.171875 L 15.234375 -28.9375 L 15.171875 -28.96875 C 11.054688 -30.132812 9.4375 -32.257812 10.3125 -35.34375 C 11.195312 -38.425781 12.679688 -39.671875 14.765625 -39.078125 L 17.8125 -38.21875 C 17.988281 -38.851562 18.144531 -39.460938 18.28125 -40.046875 C 18.425781 -40.640625 18.585938 -41.242188 18.765625 -41.859375 C 19.785156 -45.429688 22.140625 -47.265625 25.828125 -47.359375 C 28.046875 -47.472656 29.660156 -46.960938 30.671875 -45.828125 C 31.679688 -44.703125 31.914062 -43.175781 31.375 -41.25 L 29.546875 -34.859375 L 34.609375 -33.40625 C 38.710938 -32.238281 40.332031 -30.140625 39.46875 -27.109375 C 38.59375 -24.066406 36.296875 -23.078125 32.578125 -24.140625 L 26.921875 -25.671875 C 26.742188 -25.046875 26.550781 -24.421875 26.34375 -23.796875 C 26.132812 -23.171875 25.9375 -22.523438 25.75 -21.859375 C 25.101562 -19.804688 24.484375 -17.738281 23.890625 -15.65625 C 23.296875 -13.582031 22.726562 -11.601562 22.1875 -9.71875 C 21.019531 -5.613281 22.109375 -3.109375 25.453125 -2.203125 Z M 25.453125 -2.203125 "/></g></g></g><g fill="#ff751f" fill-opacity="1"><g transform="translate(755.680065, 155.593649)"><g><path d="M 20.90625 7.375 C 14.476562 5.351562 10.332031 2.117188 8.46875 -2.328125 C 6.613281 -6.785156 6.804688 -12.5625 9.046875 -19.65625 C 13.222656 -32.925781 21.488281 -37.613281 33.84375 -33.71875 C 38.289062 -32.320312 41.570312 -30.257812 43.6875 -27.53125 C 45.8125 -24.8125 46.878906 -21.59375 46.890625 -17.875 C 46.910156 -14.164062 45.976562 -10.15625 44.09375 -5.84375 C 43.75 -5.113281 43.265625 -4.847656 42.640625 -5.046875 L 19.734375 -12.265625 C 19.054688 -9.785156 18.804688 -7.78125 18.984375 -6.25 C 19.160156 -4.726562 19.660156 -3.554688 20.484375 -2.734375 C 21.316406 -1.921875 22.351562 -1.320312 23.59375 -0.9375 C 25.46875 -0.34375 27.046875 -0.1875 28.328125 -0.46875 C 29.429688 -0.8125 30.328125 -1.1875 31.015625 -1.59375 C 31.710938 -2.007812 32.40625 -2.316406 33.09375 -2.515625 C 33.78125 -2.722656 34.628906 -2.671875 35.640625 -2.359375 C 37.503906 -1.765625 38.84375 -0.828125 39.65625 0.453125 C 40.46875 1.734375 40.347656 3.101562 39.296875 4.5625 C 35.984375 9.257812 29.851562 10.195312 20.90625 7.375 Z M 21.9375 -18.984375 L 33.703125 -15.28125 C 34.710938 -18.125 34.988281 -20.40625 34.53125 -22.125 C 34.070312 -23.84375 32.789062 -25.035156 30.6875 -25.703125 C 28.820312 -26.285156 27.113281 -26.046875 25.5625 -24.984375 C 24.007812 -23.921875 22.800781 -21.921875 21.9375 -18.984375 Z M 21.9375 -18.984375 "/></g></g></g><g fill="#ff751f" fill-opacity="1"><g transform="translate(795.918631, 167.960063)"><g><path d="M 63.78125 16.078125 C 62.3125 20.140625 59.570312 21.445312 55.5625 20 L 55.328125 19.921875 C 51.328125 18.484375 50.0625 15.734375 51.53125 11.671875 C 52.738281 8.421875 53.882812 5.320312 54.96875 2.375 C 56.050781 -0.5625 57.035156 -3.253906 57.921875 -5.703125 C 58.753906 -8.015625 58.929688 -9.769531 58.453125 -10.96875 C 57.972656 -12.164062 56.925781 -13.023438 55.3125 -13.546875 C 52.738281 -14.421875 50.410156 -13.894531 48.328125 -11.96875 L 47.390625 -9.359375 C 46.460938 -6.921875 45.476562 -4.226562 44.4375 -1.28125 C 43.40625 1.65625 42.34375 4.738281 41.25 7.96875 C 39.78125 12.03125 37.035156 13.335938 33.015625 11.890625 L 32.8125 11.8125 C 28.789062 10.363281 27.515625 7.609375 28.984375 3.546875 C 30.203125 0.304688 31.351562 -2.78125 32.4375 -5.71875 C 33.53125 -8.664062 34.519531 -11.363281 35.40625 -13.8125 C 36.238281 -16.125 36.410156 -17.878906 35.921875 -19.078125 C 35.441406 -20.273438 34.394531 -21.140625 32.78125 -21.671875 C 30.039062 -22.535156 27.5625 -21.875 25.34375 -19.6875 L 23.21875 -13.8125 C 22.332031 -11.507812 21.5 -9.234375 20.71875 -6.984375 C 19.9375 -4.734375 19.140625 -2.476562 18.328125 -0.21875 C 17.679688 1.75 16.648438 3.0625 15.234375 3.71875 C 13.816406 4.382812 12.140625 4.367188 10.203125 3.671875 L 9.703125 3.5 C 7.773438 2.800781 6.476562 1.742188 5.8125 0.328125 C 5.144531 -1.078125 5.179688 -2.75 5.921875 -4.6875 C 6.785156 -6.925781 7.628906 -9.160156 8.453125 -11.390625 C 9.285156 -13.628906 10.117188 -15.90625 10.953125 -18.21875 C 11.804688 -20.582031 12.617188 -22.878906 13.390625 -25.109375 C 14.171875 -27.335938 14.945312 -29.597656 15.71875 -31.890625 C 16.375 -33.835938 17.40625 -35.140625 18.8125 -35.796875 C 20.226562 -36.460938 21.898438 -36.445312 23.828125 -35.75 C 25.765625 -35.050781 27.164062 -34.226562 28.03125 -33.28125 C 28.894531 -32.34375 29.128906 -31.328125 28.734375 -30.234375 C 28.523438 -29.785156 28.316406 -29.273438 28.109375 -28.703125 C 27.898438 -28.140625 27.648438 -27.53125 27.359375 -26.875 L 27.4375 -26.859375 C 29.707031 -28.867188 32.082031 -30.09375 34.5625 -30.53125 C 37.050781 -30.976562 39.664062 -30.707031 42.40625 -29.71875 C 44.957031 -28.800781 46.863281 -27.460938 48.125 -25.703125 C 49.382812 -23.941406 49.925781 -21.644531 49.75 -18.8125 L 49.96875 -18.734375 C 52.25 -20.753906 54.628906 -21.984375 57.109375 -22.421875 C 59.585938 -22.867188 62.195312 -22.597656 64.9375 -21.609375 C 68.664062 -20.265625 70.988281 -17.984375 71.90625 -14.765625 C 72.832031 -11.554688 72.175781 -7.050781 69.9375 -1.25 C 69 1.195312 68.015625 3.890625 66.984375 6.828125 C 65.953125 9.765625 64.882812 12.847656 63.78125 16.078125 Z M 63.78125 16.078125 "/></g></g></g><g fill="#ff751f" fill-opacity="1"><g transform="translate(860.297385, 191.547214)"><g/></g></g></g></g></g></g></g></svg>